<svg xmlns="http://www.w3.org/2000/svg" version="1.1" xmlns:xlink="http://www.w3.org/1999/xlink" xmlns:svgjs="http://svgjs.dev/svgjs" width="1500" height="935" viewBox="0 0 1500 935"><g transform="matrix(1,0,0,1,-0.9090909090908781,0.3785425101214628)"><svg viewBox="0 0 396 247" data-background-color="#ffffff" preserveAspectRatio="xMidYMid meet" height="935" width="1500" xmlns="http://www.w3.org/2000/svg" xmlns:xlink="http://www.w3.org/1999/xlink"><g id="tight-bounds" transform="matrix(1,0,0,1,0.2400000000000091,-0.09999999999999432)"><svg viewBox="0 0 395.52 247.2" height="247.2" width="395.52"><g><svg></svg></g><g><svg viewBox="0 0 395.52 247.2" height="247.2" width="395.52"><g transform="matrix(1,0,0,1,75.54432,84.1382125175571)"><svg viewBox="0 0 244.43135999999998 78.9235749648858" height="78.9235749648858" width="244.43135999999998"><g><svg viewBox="0 0 244.43135999999998 78.9235749648858" height="78.9235749648858" width="244.43135999999998"><g><svg viewBox="0 0 244.43135999999998 78.9235749648858" height="78.9235749648858" width="244.43135999999998"><g><svg viewBox="0 0 244.43135999999998 78.9235749648858" height="78.9235749648858" width="244.43135999999998"><g id="textblocktransform"><svg viewBox="0 0 244.43135999999998 78.9235749648858" height="78.9235749648858" width="244.43135999999998" id="textblock"><g><svg viewBox="0 0 244.43135999999998 46.910557380310884" height="46.910557380310884" width="244.43135999999998"><g transform="matrix(1,0,0,1,0,0)"><svg width="244.43135999999998" viewBox="0.35 -36.3 241.23000000000002 46.3" height="46.910557380310884" data-palette-color="#000000"><path d="M10.15 0.3L10.15 0.3Q6.8 0.3 4.63-0.85 2.45-2 1.4-3.8 0.35-5.6 0.35-7.5L0.35-7.5Q0.35-9.35 1.25-11.03 2.15-12.7 3.83-13.8 5.5-14.9 7.8-14.9L7.8-14.9Q7.75-14.45 7.75-14.08 7.75-13.7 7.75-13.7L7.75-13.7Q7.75-10.35 8.4-8.43 9.05-6.5 10.05-5.68 11.05-4.85 12.1-4.85L12.1-4.85Q13.7-4.85 14.95-6.13 16.2-7.4 16.2-9.1L16.2-9.1Q16.2-11 14.58-12.45 12.95-13.9 10.45-15.65L10.45-15.65Q9.05-16.7 7.48-18.03 5.9-19.35 4.8-21.18 3.7-23 3.7-25.5L3.7-25.5Q3.7-28.1 4.93-30.1 6.15-32.1 8.18-33.48 10.2-34.85 12.63-35.58 15.05-36.3 17.45-36.3L17.45-36.3Q20.4-36.3 22.3-35.35 24.2-34.4 25.15-32.9 26.1-31.4 26.1-29.8L26.1-29.8Q26.1-28.3 25.28-26.93 24.45-25.55 22.85-24.7 21.25-23.85 18.9-23.85L18.9-23.85Q19.05-24.55 19.1-25.13 19.15-25.7 19.15-26.15L19.15-26.15Q19.15-28.65 18.07-29.73 17-30.8 15.7-30.8L15.7-30.8Q14.45-30.8 13.3-29.88 12.15-28.95 12.15-26.9L12.15-26.9Q12.15-25.15 13.08-23.9 14-22.65 15.48-21.7 16.95-20.75 18.6-19.85L18.6-19.85Q20.3-18.95 21.88-17.88 23.45-16.8 24.5-15.35 25.55-13.9 25.55-11.7L25.55-11.7Q25.55-9.4 24.3-7.23 23.05-5.05 20.9-3.38 18.75-1.7 15.98-0.7 13.2 0.3 10.15 0.3ZM33.65 0.2L33.65 0.2Q31.5 0.2 30.2-1.25 28.9-2.7 28.9-5.2L28.9-5.2Q28.9-6.55 29.25-8.72 29.6-10.9 30.12-13.53 30.65-16.15 31.15-18.88 31.65-21.6 32-24.15 32.35-26.7 32.35-28.65L32.35-28.65Q32.35-31.1 31.7-32.2L31.7-32.2 31.7-32.5Q32.8-33.75 34.1-34.35 35.4-34.95 36.65-34.95L36.65-34.95Q38.55-34.95 39.9-33.6 41.25-32.25 41.25-29.55L41.25-29.55Q41.25-28.1 40.85-26 40.45-23.9 39.9-21.6 39.35-19.3 38.8-17.3L38.8-17.3Q39.75-19.15 41.32-20.98 42.9-22.8 44.92-24 46.95-25.2 49.15-25.2L49.15-25.2Q51.65-25.2 52.52-23.65 53.4-22.1 53.4-19.8L53.4-19.8Q53.4-17.7 52.95-15.33 52.5-12.95 52.05-10.78 51.6-8.6 51.6-7.15L51.6-7.15Q51.6-5.05 52.85-5.05L52.85-5.05Q53.4-5.05 53.82-5.38 54.25-5.7 54.45-6.1L54.45-6.1 54.8-5.85Q54.8-3.9 53.85-2.55 52.9-1.2 51.42-0.5 49.95 0.2 48.4 0.2L48.4 0.2Q46.35 0.2 44.7-1.18 43.05-2.55 43.05-5.65L43.05-5.65Q43.05-7.4 43.52-9.45 44-11.5 44.45-13.43 44.9-15.35 44.9-16.65L44.9-16.65Q44.9-18.35 43.7-18.35L43.7-18.35Q42.6-18.35 41.3-17.25 40-16.15 39.02-14.5 38.05-12.85 37.75-11.25L37.75-11.25Q37.65-10.85 37.65-10.3L37.65-10.3Q37.65-9.05 38.02-7.9 38.4-6.75 38.4-5.2L38.4-5.2Q38.4-2.9 37.2-1.35 36 0.2 33.65 0.2ZM68.35 0.35L68.35 0.35Q64.6 0.35 62.15-1.15 59.7-2.65 58.52-5.13 57.35-7.6 57.35-10.4L57.35-10.4Q57.35-13.05 58.32-15.7 59.3-18.35 61.17-20.53 63.05-22.7 65.75-24.03 68.45-25.35 71.95-25.35L71.95-25.35Q75.7-25.35 78.12-23.83 80.55-22.3 81.72-19.8 82.9-17.3 82.9-14.45L82.9-14.45Q82.9-11.85 81.95-9.22 81-6.6 79.12-4.42 77.25-2.25 74.55-0.95 71.85 0.35 68.35 0.35ZM69.7-3.9L69.7-3.9Q71.05-3.9 71.95-5.3 72.85-6.7 73.3-8.88 73.75-11.05 73.75-13.3L73.75-13.3Q73.75-15.3 73.37-17.07 73-18.85 72.25-19.98 71.5-21.1 70.3-21.1L70.3-21.1Q69-21.1 68.07-19.7 67.15-18.3 66.7-16.15 66.25-14 66.25-11.7L66.25-11.7Q66.25-9.7 66.62-7.93 67-6.15 67.75-5.03 68.5-3.9 69.7-3.9ZM90.39 10L90.39 10Q89.14 10 88.02 9.35 86.89 8.7 86.17 7.25 85.44 5.8 85.44 3.35L85.44 3.35Q85.44 1 86.07-1.75 86.69-4.5 87.49-7.28 88.29-10.05 88.92-12.55 89.54-15.05 89.54-17L89.54-17Q89.54-18.45 89.14-18.98 88.74-19.5 88.19-19.5L88.19-19.5Q87.69-19.5 87.19-19.2 86.69-18.9 86.34-18.5L86.34-18.5 85.99-18.7Q85.99-20.45 87.02-21.93 88.04-23.4 89.64-24.3 91.24-25.2 92.94-25.2L92.94-25.2Q94.59-25.2 95.59-24.38 96.59-23.55 97.12-22.25 97.64-20.95 97.74-19.45L97.74-19.45Q99.64-22.45 101.89-23.9 104.14-25.35 106.14-25.35L106.14-25.35Q108.84-25.35 110.72-22.8 112.59-20.25 112.59-14.9L112.59-14.9Q112.59-9.9 110.99-6.53 109.39-3.15 106.97-1.48 104.54 0.2 102.04 0.2L102.04 0.2Q99.89 0.2 98.07-1.07 96.24-2.35 95.24-4.8L95.24-4.8Q94.79-2.75 94.47-0.75 94.14 1.25 94.14 3.15L94.14 3.15Q94.14 4.2 94.27 5.2 94.39 6.2 94.69 7.2L94.69 7.2 94.69 7.5Q94.04 8.75 92.87 9.38 91.69 10 90.39 10ZM99.59-4.65L99.59-4.65Q100.79-4.65 101.69-5.6 102.59-6.55 103.24-8.08 103.89-9.6 104.22-11.35 104.54-13.1 104.54-14.75L104.54-14.75Q104.54-16.85 103.99-18.32 103.44-19.8 102.29-19.8L102.29-19.8Q100.84-19.8 99.04-16.88 97.24-13.95 96.24-8L96.24-8Q96.69-6.45 97.59-5.55 98.49-4.65 99.59-4.65ZM123.84 0.25L123.84 0.25Q121.09 0.25 119.24-2.05 117.39-4.35 117.39-8.35L117.39-8.35Q117.39-10.4 117.84-12.98 118.29-15.55 118.89-18.2 119.49-20.85 119.94-23.18 120.39-25.5 120.39-27.05L120.39-27.05Q120.39-28.15 120.09-28.78 119.79-29.4 118.99-29.4L118.99-29.4Q118.39-29.4 117.59-28.85 116.79-28.3 116.39-26.7L116.39-26.7 115.89-26.9Q115.89-31.2 117.87-33.7 119.84-36.2 123.19-36.2L123.19-36.2Q126.34-36.2 127.57-34.15 128.79-32.1 128.79-29L128.79-29Q128.79-26.7 128.32-24.1 127.84-21.5 127.24-18.93 126.64-16.35 126.17-14.15 125.69-11.95 125.69-10.5L125.69-10.5Q125.69-8.35 126.79-8.35L126.79-8.35Q127.44-8.35 128.54-9.28 129.64-10.2 130.87-11.83 132.09-13.45 133.24-15.53 134.39-17.6 135.19-19.9L135.19-19.9Q135.09-21 135.04-22.03 134.99-23.05 134.99-23.85L134.99-23.85Q134.99-27.85 135.77-30.3 136.54-32.75 137.74-33.9 138.94-35.05 140.19-35.05L140.19-35.05Q141.94-35.05 143.34-33.13 144.74-31.2 144.74-27.9L144.74-27.9Q144.74-25.85 143.99-23.33 143.24-20.8 141.49-17.95L141.49-17.95Q141.34-13.65 142.44-11 143.54-8.35 145.19-8.35L145.19-8.35Q146.24-8.35 147.47-9.43 148.69-10.5 149.74-12.43 150.79-14.35 151.47-16.9 152.14-19.45 152.14-22.35L152.14-22.35Q152.14-24.05 151.92-25.9 151.69-27.75 151.37-29.45 151.04-31.15 150.69-32.25L150.69-32.25Q150.69-33.1 151.42-33.98 152.14-34.85 153.29-35.48 154.44-36.1 155.64-36.1L155.64-36.1Q156.84-36.1 157.94-35.25 159.04-34.4 159.74-32.27 160.44-30.15 160.44-26.25L160.44-26.25Q160.44-20.8 159.04-16.03 157.64-11.25 155.27-7.6 152.89-3.95 150.04-1.88 147.19 0.2 144.24 0.2L144.24 0.2Q141.64 0.2 139.94-1.4 138.24-3 137.29-5.7 136.34-8.4 135.94-11.7L135.94-11.7Q134.14-7.4 132.04-4.78 129.94-2.15 127.84-0.95 125.74 0.25 123.84 0.25ZM180.29 0.25L180.29 0.25Q178.54 0.25 177.24-0.9 175.94-2.05 175.94-4.65L175.94-4.65Q175.94-4.9 175.94-5.15 175.94-5.4 175.99-5.65L175.99-5.65Q174.49-2.65 172.61-1.23 170.74 0.2 168.84 0.2L168.84 0.2Q167.09 0.2 165.54-1.03 163.99-2.25 163.04-4.65 162.09-7.05 162.09-10.45L162.09-10.45Q162.09-13.95 163.06-16.7 164.04-19.45 165.64-21.35 167.24-23.25 169.14-24.23 171.04-25.2 172.84-25.2L172.84-25.2Q174.84-25.2 176.44-23.98 178.04-22.75 178.64-20.1L178.64-20.1Q178.79-20.95 178.86-21.65 178.94-22.35 178.94-22.6L178.94-22.6Q178.99-23.95 180.31-24.6 181.64-25.25 183.24-25.25L183.24-25.25Q184.64-25.25 185.89-24.7 187.14-24.15 187.59-22.85L187.59-22.85 187.69-22.55Q187.09-21.2 186.49-19.3 185.89-17.4 185.39-15.33 184.89-13.25 184.59-11.28 184.29-9.3 184.29-7.8L184.29-7.8Q184.29-6.15 184.64-5.53 184.99-4.9 185.49-4.9L185.49-4.9Q186.34-4.9 187.04-6.1L187.04-6.1 187.44-5.9Q187.44-4.2 186.34-2.8 185.24-1.4 183.59-0.58 181.94 0.25 180.29 0.25ZM172.14-6.1L172.14-6.1Q173.44-6.1 175.01-8.43 176.59-10.75 177.74-15.1L177.74-15.1Q177.84-15.55 177.94-15.98 178.04-16.4 178.09-16.8L178.09-16.8Q177.29-18.65 176.41-19.43 175.54-20.2 174.69-20.2L174.69-20.2Q173.44-20.2 172.36-18.88 171.29-17.55 170.61-15.55 169.94-13.55 169.94-11.55L169.94-11.55Q169.94-8.8 170.56-7.45 171.19-6.1 172.14-6.1ZM197.74 0.2L197.74 0.2Q194.84 0.2 193.14-1.33 191.44-2.85 191.44-6.05L191.44-6.05Q191.44-7.9 191.91-10 192.39-12.1 192.84-13.75L192.84-13.75Q193.29-15.35 193.56-16.55 193.84-17.75 193.84-18.4L193.84-18.4Q193.84-19.2 193.49-19.55 193.14-19.9 192.64-19.9L192.64-19.9Q191.44-19.9 190.64-18.75L190.64-18.75 190.44-18.95Q190.49-20.65 191.54-22.08 192.59-23.5 194.24-24.35 195.89-25.2 197.59-25.2L197.59-25.2Q199.49-25.2 200.84-24.08 202.19-22.95 202.09-20.55L202.09-20.55Q202.04-19.5 201.71-17.9 201.39-16.3 200.84-14.1L200.84-14.1Q200.49-12.7 200.11-10.93 199.74-9.15 199.74-7.7L199.74-7.7Q199.74-6.6 200.09-5.95 200.44-5.3 201.24-5.3L201.24-5.3Q202.29-5.3 203.56-6.48 204.84-7.65 205.79-10.33 206.74-13 206.89-17.45L206.89-17.45Q207.04-20.85 206.44-22.4L206.44-22.4 206.44-22.65Q206.89-23.35 207.81-24 208.74-24.65 209.89-25.08 211.04-25.5 212.04-25.5L212.04-25.5Q213.64-25.5 214.76-23.95 215.89-22.4 215.74-18.55L215.74-18.55Q215.64-14.85 214.41-11.85 213.19-8.85 211.24-6.6 209.29-4.35 206.96-2.85 204.64-1.35 202.24-0.58 199.84 0.2 197.74 0.2ZM228.78 0.35L228.78 0.35Q225.13 0.35 222.73-1.13 220.33-2.6 219.13-5.03 217.93-7.45 217.93-10.25L217.93-10.25Q217.93-12.9 218.96-15.58 219.98-18.25 221.96-20.45 223.93-22.65 226.76-24 229.58-25.35 233.13-25.35L233.13-25.35Q237.53-25.35 239.56-23.38 241.58-21.4 241.58-18.6L241.58-18.6Q241.58-16.2 240.31-14.18 239.03-12.15 236.93-10.93 234.83-9.7 232.33-9.7L232.33-9.7Q231.03-9.7 229.68-10.1 228.33-10.5 227.03-11.35L227.03-11.35Q227.28-8.25 228.83-6.85 230.38-5.45 232.53-5.45L232.53-5.45Q234.03-5.45 235.53-6.03 237.03-6.6 238.31-7.53 239.58-8.45 240.28-9.5L240.28-9.5 240.63-9.25Q240.63-6.65 239.56-4.83 238.48-3 236.73-1.85 234.98-0.7 232.91-0.18 230.83 0.35 228.78 0.35ZM229.93-13.15L229.93-13.15Q231.53-13.15 232.53-14.08 233.53-15 234.03-16.25 234.53-17.5 234.53-18.45L234.53-18.45Q234.53-19.6 233.88-20.38 233.23-21.15 232.08-21.15L232.08-21.15Q231.18-21.15 230.11-20.5 229.03-19.85 228.18-18.28 227.33-16.7 227.08-13.9L227.08-13.9Q228.68-13.15 229.93-13.15Z" opacity="1" transform="matrix(1,0,0,1,0,0)" fill="#000000" class="wordmark-text-0" data-fill-palette-color="primary" id="text-0"></path></svg></g></svg></g><g transform="matrix(1,0,0,1,0,57.985014124425156)"><svg viewBox="0 0 244.43135999999998 20.938560840460635" height="20.938560840460635" width="244.43135999999998"><g transform="matrix(1,0,0,1,0,0)"><svg width="244.43135999999998" viewBox="2.53 -33.33 515.5400000000001 44.16" height="20.938560840460635" data-palette-color="#000000"><path d="M11.11 0.42L11.11 0.42Q8.33 0.42 6.09-0.69 3.85-1.81 2.53-3.4L2.53-3.4 3.68-8.19Q4.65-6.25 6.6-4.69 8.54-3.13 11.25-3.13L11.25-3.13Q13.72-3.13 15.33-4.69 16.94-6.25 16.94-8.54L16.94-8.54Q16.94-10.21 16.15-11.28 15.35-12.36 14.34-12.99 13.33-13.61 12.74-13.89L12.74-13.89 8.92-15.83Q8.02-16.32 6.68-17.19 5.35-18.06 4.34-19.58 3.33-21.11 3.33-23.54L3.33-23.54Q3.33-25.9 4.43-27.74 5.52-29.58 7.48-30.63 9.44-31.67 11.98-31.67L11.98-31.67Q14.48-31.67 16.39-30.78 18.3-29.9 19.38-28.96L19.38-28.96 18.23-24.17Q17.36-25.63 15.66-26.91 13.96-28.19 11.81-28.19L11.81-28.19Q9.72-28.19 8.47-26.96 7.22-25.73 7.22-23.92L7.22-23.92Q7.22-22.53 7.86-21.63 8.51-20.73 9.32-20.21 10.14-19.69 10.66-19.41L10.66-19.41 14.55-17.47Q15.24-17.12 16.3-16.49 17.36-15.87 18.4-14.84 19.44-13.82 20.14-12.34 20.83-10.87 20.83-8.78L20.83-8.78Q20.83-6.11 19.57-4.03 18.3-1.94 16.11-0.76 13.92 0.42 11.11 0.42ZM30 0L26.25 0 26.25-33.33 30-33.33 30-17.88Q31.18-19.51 32.91-20.38 34.65-21.25 36.63-21.25L36.63-21.25Q38.85-21.25 40.74-20.16 42.64-19.06 43.82-17 45-14.93 45-11.98L45-11.98 45 0 41.25 0 41.25-11.46Q41.25-13.92 39.77-15.82 38.3-17.71 35.62-17.71L35.62-17.71Q33.44-17.71 31.72-16.13 30-14.55 30-11.56L30-11.56 30 0ZM60.76 0.42L60.76 0.42Q57.74 0.42 55.24-1.04 52.74-2.5 51.26-4.97 49.79-7.43 49.79-10.42L49.79-10.42Q49.79-13.44 51.26-15.89 52.74-18.33 55.24-19.79 57.74-21.25 60.76-21.25L60.76-21.25Q63.81-21.25 66.3-19.79 68.78-18.33 70.26-15.89 71.73-13.44 71.73-10.42L71.73-10.42Q71.73-7.43 70.26-4.97 68.78-2.5 66.3-1.04 63.81 0.42 60.76 0.42ZM60.76-3.13L60.76-3.13Q62.77-3.13 64.4-4.11 66.04-5.1 67.01-6.75 67.98-8.4 67.98-10.42L67.98-10.42Q67.98-12.43 67.01-14.08 66.04-15.73 64.4-16.72 62.77-17.71 60.76-17.71L60.76-17.71Q58.75-17.71 57.11-16.72 55.48-15.73 54.51-14.08 53.54-12.43 53.54-10.42L53.54-10.42Q53.54-8.4 54.51-6.75 55.48-5.1 57.11-4.11 58.75-3.13 60.76-3.13ZM80.69 10.42L76.94 10.42 76.94-20.83 80.41-20.83 80.41-18.09Q81.83-19.51 83.71-20.31 85.58-21.11 87.74-21.11L87.74-21.11Q90.62-21.11 92.96-19.67 95.31-18.23 96.71-15.8 98.12-13.37 98.12-10.42L98.12-10.42Q98.12-7.47 96.71-5.03 95.31-2.6 92.96-1.16 90.62 0.28 87.74 0.28L87.74 0.28Q85.69 0.28 83.88-0.45 82.08-1.18 80.69-2.47L80.69-2.47 80.69 10.42ZM87.25-3.13L87.25-3.13Q89.23-3.13 90.84-4.11 92.46-5.1 93.41-6.75 94.37-8.4 94.37-10.42L94.37-10.42Q94.37-12.43 93.41-14.08 92.46-15.73 90.84-16.72 89.23-17.71 87.25-17.71L87.25-17.71Q85.27-17.71 83.66-16.72 82.04-15.73 81.09-14.08 80.13-12.43 80.13-10.42L80.13-10.42Q80.13-8.4 81.09-6.75 82.04-5.1 83.66-4.11 85.27-3.13 87.25-3.13ZM107.07 10.42L103.32 10.42 103.32-20.83 106.8-20.83 106.8-18.09Q108.22-19.51 110.09-20.31 111.97-21.11 114.12-21.11L114.12-21.11Q117-21.11 119.35-19.67 121.69-18.23 123.1-15.8 124.5-13.37 124.5-10.42L124.5-10.42Q124.5-7.47 123.1-5.03 121.69-2.6 119.35-1.16 117 0.28 114.12 0.28L114.12 0.28Q112.07 0.28 110.27-0.45 108.46-1.18 107.07-2.47L107.07-2.47 107.07 10.42ZM113.64-3.13L113.64-3.13Q115.62-3.13 117.23-4.11 118.84-5.1 119.8-6.75 120.75-8.4 120.75-10.42L120.75-10.42Q120.75-12.43 119.8-14.08 118.84-15.73 117.23-16.72 115.62-17.71 113.64-17.71L113.64-17.71Q111.66-17.71 110.04-16.72 108.43-15.73 107.47-14.08 106.52-12.43 106.52-10.42L106.52-10.42Q106.52-8.4 107.47-6.75 108.43-5.1 110.04-4.11 111.66-3.13 113.64-3.13ZM133.46 0L129.71 0 129.71-20.83 133.46-20.83 133.46 0ZM131.58-24.58L131.58-24.58Q130.54-24.58 129.81-25.31 129.08-26.04 129.08-27.08L129.08-27.08Q129.08-28.16 129.81-28.87 130.54-29.58 131.58-29.58L131.58-29.58Q132.66-29.58 133.37-28.87 134.08-28.16 134.08-27.08L134.08-27.08Q134.08-26.04 133.37-25.31 132.66-24.58 131.58-24.58ZM143.87 0L140.12 0 140.12-20.83 143.6-20.83 143.6-17.47Q144.74-19.31 146.56-20.28 148.39-21.25 150.51-21.25L150.51-21.25Q152.73-21.25 154.62-20.16 156.51-19.06 157.69-17 158.87-14.93 158.87-11.98L158.87-11.98 158.87 0 155.12 0 155.12-11.46Q155.12-13.92 153.65-15.82 152.17-17.71 149.5-17.71L149.5-17.71Q147.31-17.71 145.59-16.13 143.87-14.55 143.87-11.56L143.87-11.56 143.87 0ZM173.56 10.83L173.56 10.83Q171.16 10.83 169.2 10.14 167.24 9.44 165.71 8.23L165.71 8.23 166.75 3.99Q167.8 5.49 169.53 6.42 171.27 7.36 173.52 7.36L173.52 7.36Q177.03 7.36 179.2 5.24 181.37 3.13 181.37-0.21L181.37-0.21 181.37-2.74Q179.98-1.35 178.09-0.54 176.2 0.28 174.05 0.28L174.05 0.28Q171.2 0.28 168.84-1.16 166.48-2.6 165.07-5.03 163.66-7.47 163.66-10.42L163.66-10.42Q163.66-13.37 165.07-15.8 166.48-18.23 168.84-19.67 171.2-21.11 174.05-21.11L174.05-21.11Q176.2-21.11 178.09-20.31 179.98-19.51 181.37-18.09L181.37-18.09 181.37-20.83 184.84-20.83 184.84 0Q184.84 3.4 183.26 5.83 181.68 8.26 179.11 9.55 176.55 10.83 173.56 10.83ZM174.53-3.13L174.53-3.13Q176.51-3.13 178.12-4.11 179.74-5.1 180.69-6.75 181.65-8.4 181.65-10.42L181.65-10.42Q181.65-12.43 180.69-14.08 179.74-15.73 178.12-16.72 176.51-17.71 174.53-17.71L174.53-17.71Q172.55-17.71 170.94-16.72 169.32-15.73 168.37-14.08 167.41-12.43 167.41-10.42L167.41-10.42Q167.41-8.4 168.37-6.75 169.32-5.1 170.94-4.11 172.55-3.13 174.53-3.13ZM211.44 0.42L211.44 0.42Q208.41 0.42 205.91-1.04 203.41-2.5 201.94-4.97 200.46-7.43 200.46-10.42L200.46-10.42Q200.46-13.44 201.94-15.89 203.41-18.33 205.91-19.79 208.41-21.25 211.44-21.25L211.44-21.25Q214.49-21.25 216.97-19.79 219.46-18.33 220.93-15.89 222.41-13.44 222.41-10.42L222.41-10.42Q222.41-7.43 220.93-4.97 219.46-2.5 216.97-1.04 214.49 0.42 211.44 0.42ZM211.44-3.13L211.44-3.13Q213.45-3.13 215.08-4.11 216.71-5.1 217.69-6.75 218.66-8.4 218.66-10.42L218.66-10.42Q218.66-12.43 217.69-14.08 216.71-15.73 215.08-16.72 213.45-17.71 211.44-17.71L211.44-17.71Q209.42-17.71 207.79-16.72 206.16-15.73 205.19-14.08 204.21-12.43 204.21-10.42L204.21-10.42Q204.21-8.4 205.19-6.75 206.16-5.1 207.79-4.11 209.42-3.13 211.44-3.13ZM231.36 0L227.61 0 227.61-20.83 231.09-20.83 231.09-17.47Q232.23-19.31 234.05-20.28 235.88-21.25 238-21.25L238-21.25Q240.22-21.25 242.11-20.16 244-19.06 245.18-17 246.36-14.93 246.36-11.98L246.36-11.98 246.36 0 242.61 0 242.61-11.46Q242.61-13.92 241.14-15.82 239.66-17.71 236.99-17.71L236.99-17.71Q234.8-17.71 233.08-16.13 231.36-14.55 231.36-11.56L231.36-11.56 231.36 0ZM256.36 0L252.61 0 252.61-33.33 256.36-33.33 256.36 0ZM266.78 0L263.03 0 263.03-20.83 266.78-20.83 266.78 0ZM264.9-24.58L264.9-24.58Q263.86-24.58 263.13-25.31 262.4-26.04 262.4-27.08L262.4-27.08Q262.4-28.16 263.13-28.87 263.86-29.58 264.9-29.58L264.9-29.58Q265.98-29.58 266.69-28.87 267.4-28.16 267.4-27.08L267.4-27.08Q267.4-26.04 266.69-25.31 265.98-24.58 264.9-24.58ZM277.19 0L273.44 0 273.44-20.83 276.91-20.83 276.91-17.47Q278.06-19.31 279.88-20.28 281.7-21.25 283.82-21.25L283.82-21.25Q286.04-21.25 287.94-20.16 289.83-19.06 291.01-17 292.19-14.93 292.19-11.98L292.19-11.98 292.19 0 288.44 0 288.44-11.46Q288.44-13.92 286.96-15.82 285.49-17.71 282.81-17.71L282.81-17.71Q280.63-17.71 278.91-16.13 277.19-14.55 277.19-11.56L277.19-11.56 277.19 0ZM308.37 0.42L308.37 0.42Q305.1 0.42 302.52-1.04 299.93-2.5 298.45-5.02 296.98-7.53 296.98-10.63L296.98-10.63Q296.98-13.58 298.4-15.99 299.83-18.4 302.24-19.83 304.65-21.25 307.57-21.25L307.57-21.25Q310.45-21.25 312.85-19.88 315.24-18.51 316.67-16.18 318.09-13.85 318.09-10.9L318.09-10.9 318.09-9.38 304.48-9.38Q303.58-9.38 302.64-9.44 301.7-9.51 300.8-9.65L300.8-9.65Q301.18-6.88 303.32-5 305.45-3.13 308.4-3.13L308.4-3.13Q310.38-3.13 312.08-4.03 313.78-4.93 314.83-6.42L314.83-6.42 315.87-2.15Q314.37-0.94 312.45-0.26 310.52 0.42 308.37 0.42ZM300.69-12.19L300.69-12.19Q302.57-12.5 304.48-12.5L304.48-12.5 311.39-12.5Q312.15-12.5 312.9-12.45 313.65-12.4 314.41-12.33L314.41-12.33Q313.92-14.76 311.98-16.34 310.03-17.92 307.57-17.92L307.57-17.92Q305.03-17.92 303.12-16.23 301.22-14.55 300.69-12.19ZM345.31-8.26L341.11 1.04 330.59-20.83 334.86-20.83 339.06-11.81Q339.65-10.52 340.19-9.31 340.72-8.09 341.24-6.25L341.24-6.25Q341.8-8.06 342.37-9.31 342.95-10.56 343.47-11.81L343.47-11.81 347.67-21.81 351.84-11.81Q352.36-10.52 352.91-9.31 353.47-8.09 353.99-6.25L353.99-6.25Q354.51-8.09 355.06-9.32 355.62-10.56 356.21-11.81L356.21-11.81 360.48-20.83 364.47-20.83 353.95 1.04 349.72-8.26Q349.16-9.51 348.62-10.75 348.09-11.98 347.53-13.72L347.53-13.72Q347.01-11.98 346.45-10.75 345.9-9.51 345.31-8.26L345.31-8.26ZM371.97 0L368.22 0 368.22-20.83 371.97-20.83 371.97 0ZM370.1-24.58L370.1-24.58Q369.05-24.58 368.33-25.31 367.6-26.04 367.6-27.08L367.6-27.08Q367.6-28.16 368.33-28.87 369.05-29.58 370.1-29.58L370.1-29.58Q371.17-29.58 371.88-28.87 372.6-28.16 372.6-27.08L372.6-27.08Q372.6-26.04 371.88-25.31 371.17-24.58 370.1-24.58ZM384.82 0L381.07 0 381.07-17.71 376.34-17.71 376.34-20.83 381.17-20.83 381.17-27.78 384.71-27.78 384.71-20.83 389.89-20.83 389.89-17.71 384.82-17.71 384.82 0ZM398.01 0L394.26 0 394.26-33.33 398.01-33.33 398.01-17.88Q399.19-19.51 400.92-20.38 402.66-21.25 404.64-21.25L404.64-21.25Q406.86-21.25 408.75-20.16 410.65-19.06 411.83-17 413.01-14.93 413.01-11.98L413.01-11.98 413.01 0 409.26 0 409.26-11.46Q409.26-13.92 407.78-15.82 406.31-17.71 403.63-17.71L403.63-17.71Q401.45-17.71 399.73-16.13 398.01-14.55 398.01-11.56L398.01-11.56 398.01 0ZM439.6 0.42L439.6 0.42Q436.34 0.42 433.75-1.04 431.16-2.5 429.69-5.02 428.21-7.53 428.21-10.63L428.21-10.63Q428.21-13.58 429.64-15.99 431.06-18.4 433.47-19.83 435.89-21.25 438.8-21.25L438.8-21.25Q441.68-21.25 444.08-19.88 446.48-18.51 447.9-16.18 449.32-13.85 449.32-10.9L449.32-10.9 449.32-9.38 435.71-9.38Q434.81-9.38 433.87-9.44 432.93-9.51 432.03-9.65L432.03-9.65Q432.41-6.88 434.55-5 436.68-3.13 439.64-3.13L439.64-3.13Q441.61-3.13 443.32-4.03 445.02-4.93 446.06-6.42L446.06-6.42 447.1-2.15Q445.61-0.94 443.68-0.26 441.75 0.42 439.6 0.42ZM431.93-12.19L431.93-12.19Q433.8-12.5 435.71-12.5L435.71-12.5 442.62-12.5Q443.39-12.5 444.13-12.45 444.88-12.4 445.64-12.33L445.64-12.33Q445.16-14.76 443.21-16.34 441.27-17.92 438.8-17.92L438.8-17.92Q436.27-17.92 434.36-16.23 432.45-14.55 431.93-12.19ZM463.24 0.28L463.24 0.28Q460.4 0.28 458.04-1.16 455.67-2.6 454.27-5.03 452.86-7.47 452.86-10.42L452.86-10.42Q452.86-13.37 454.27-15.8 455.67-18.23 458.04-19.67 460.4-21.11 463.24-21.11L463.24-21.11Q465.4-21.11 467.29-20.31 469.18-19.51 470.57-18.09L470.57-18.09 470.57-20.83 474.04-20.83 474.04 0 470.57 0 470.57-2.74Q469.18-1.35 467.29-0.54 465.4 0.28 463.24 0.28ZM463.73-3.13L463.73-3.13Q465.71-3.13 467.32-4.11 468.94-5.1 469.89-6.75 470.85-8.4 470.85-10.42L470.85-10.42Q470.85-12.43 469.89-14.08 468.94-15.73 467.32-16.72 465.71-17.71 463.73-17.71L463.73-17.71Q461.75-17.71 460.14-16.72 458.52-15.73 457.57-14.08 456.61-12.43 456.61-10.42L456.61-10.42Q456.61-8.4 457.57-6.75 458.52-5.1 460.14-4.11 461.75-3.13 463.73-3.13ZM486.09 0.42L486.09 0.42Q484.49 0.42 482.67-0.19 480.85-0.8 479.53-2.22L479.53-2.22 480.57-6.32Q481.54-4.69 483.07-3.73 484.6-2.78 486.33-2.78L486.33-2.78Q488-2.78 488.83-3.59 489.66-4.41 489.66-5.59L489.66-5.59Q489.66-6.94 488.78-7.57 487.89-8.19 487.2-8.44L487.2-8.44 484.39-9.51Q483.62-9.83 482.55-10.43 481.47-11.04 480.67-12.19 479.87-13.33 479.87-15.17L479.87-15.17Q479.87-16.84 480.67-18.23 481.47-19.62 482.93-20.43 484.39-21.25 486.37-21.25L486.37-21.25Q487.93-21.25 489.63-20.69 491.33-20.14 492.51-18.82L492.51-18.82 491.47-14.72Q490.64-16.25 489.21-17.15 487.79-18.06 486.26-18.06L486.26-18.06Q484.84-18.06 484.02-17.26 483.21-16.46 483.21-15.42L483.21-15.42Q483.21-14.58 483.76-13.92 484.32-13.26 485.43-12.85L485.43-12.85 488.24-11.77Q489.01-11.49 490.13-10.87 491.26-10.24 492.13-9.06 493-7.88 493-5.87L493-5.87Q493-3.06 491.04-1.32 489.07 0.42 486.09 0.42ZM508.34 0.42L508.34 0.42Q505.08 0.42 502.49-1.04 499.91-2.5 498.43-5.02 496.95-7.53 496.95-10.63L496.95-10.63Q496.95-13.58 498.38-15.99 499.8-18.4 502.21-19.83 504.63-21.25 507.54-21.25L507.54-21.25Q510.43-21.25 512.82-19.88 515.22-18.51 516.64-16.18 518.07-13.85 518.07-10.9L518.07-10.9 518.07-9.38 504.45-9.38Q503.55-9.38 502.61-9.44 501.68-9.51 500.77-9.65L500.77-9.65Q501.16-6.88 503.29-5 505.43-3.13 508.38-3.13L508.38-3.13Q510.36-3.13 512.06-4.03 513.76-4.93 514.8-6.42L514.8-6.42 515.84-2.15Q514.35-0.94 512.42-0.26 510.5 0.42 508.34 0.42ZM500.67-12.19L500.67-12.19Q502.54-12.5 504.45-12.5L504.45-12.5 511.36-12.5Q512.13-12.5 512.87-12.45 513.62-12.4 514.38-12.33L514.38-12.33Q513.9-14.76 511.95-16.34 510.01-17.92 507.54-17.92L507.54-17.92Q505.01-17.92 503.1-16.23 501.19-14.55 500.67-12.19Z" opacity="1" transform="matrix(1,0,0,1,0,0)" fill="#000000" class="slogan-text-1" data-fill-palette-color="secondary" id="text-1"></path></svg></g></svg></g></svg></g></svg></g></svg></g></svg></g></svg></g><g><path d="M0 123.6c0-68.262 55.338-123.6 123.6-123.6 52.386 0 97.16 32.59 115.153 78.601h-2.275c-17.882-44.817-61.682-76.486-112.878-76.486-67.094 0-121.485 54.391-121.485 121.485 0 67.094 54.391 121.485 121.485 121.485 51.196 0 94.996-31.669 112.878-76.486l2.275 0c-17.994 46.011-62.767 78.601-115.153 78.601-68.262 0-123.6-55.338-123.6-123.6z" fill="#000000" stroke="transparent" data-fill-palette-color="tertiary"></path></g></svg></g><defs></defs></svg><rect width="395.52" height="247.2" fill="none" stroke="none" visibility="hidden"></rect></g></svg></g></svg>